# xmcd
#
# Track frame offsets: 
#        150
#        12962
#        37547
#        49690
#        61210
#        75390
#        86675
#        109027
#        120632
#        132202
#        146110
#        161527
#        180800
#        196560
#        215135
#        237482
#        268710
#        299705
#        318942
#
# Disc length: 4593 seconds
#
# Revision: 3
# Processed by: cddbd v1.5.2PL0 Copyright (c) Steve Scherf et al.
# Submitted via: ExactAudioCopy v0.95b4
#
DISCID=0111ef13
DTITLE=Various Artist - The No.1 Blues Album [Disc II]
DYEAR=1998
DGENRE=Blues
TTITLE0=I've Got My Mojo Working - Muddy Waters
TTITLE1=Hey Joe - Roy Buchanan
TTITLE2=Texas Flood - Larry Davis
TTITLE3=Don't Start Me To Talkin' - Sonny Boy Williamson
TTITLE4=Born In Chicago - The Paul Butterfield Blues Band
TTITLE5=Mary Had A Little Lamb - Buddy Guy
TTITLE6=Spoonful - Willie Dixon
TTITLE7=Crosscut Saw - Albert King
TTITLE8=Boom Boom - John Lee Hooker
TTITLE9=Before You Acuse Me - Bo Diddley
TTITLE10=Key To The Highway - Freddie King
TTITLE11=Leave My Girl Alone - Stevie Ray Vaughn
TTITLE12=Phone Booth - Robert Cray
TTITLE13=Talk To Your Daughter - Robben Ford
TTITLE14=One Way Out - The Allman Brothers Band
TTITLE15=Low Down Dirty Blues - Joe Louis Walker and Bonnie Raitt
TTITLE16=Have You Ever Loved A Woman - Derek And The Dominoes
TTITLE17=Crossroads - Cream
TTITLE18=Blue Jean Blues - The Jeff Healy Band
EXTD=YEAR: 1998
EXTT0=
EXTT1=
EXTT2=
EXTT3=
EXTT4=
EXTT5=
EXTT6=
EXTT7=
EXTT8=
EXTT9=
EXTT10=
EXTT11=
EXTT12=
EXTT13=
EXTT14=
EXTT15=
EXTT16=
EXTT17=
EXTT18=
PLAYORDER=
